<?xml version="1.0" encoding="UTF-8"?>
<svg width="114px" height="114px" viewBox="0 0 114 114" version="1.1" xmlns="http://www.w3.org/2000/svg" xmlns:xlink="http://www.w3.org/1999/xlink">
    <!-- Generator: Sketch 52.4 (67378) - http://www.bohemiancoding.com/sketch -->
    <title>分组</title>
    <desc>Created with Sketch.</desc>
    <defs>
        <circle id="path-1" cx="56" cy="56" r="56"></circle>
    </defs>
    <g id="Page-1" stroke="none" stroke-width="1" fill="none" fill-rule="evenodd">
        <g id="iPhone-8-Copy-8" transform="translate(-318.000000, -178.000000)">
            <g id="分组" transform="translate(318.000000, 178.000000)">
                <g id="Bitmap" transform="translate(1.000000, 1.000000)">
                    <mask id="mask-2" fill="white">
                        <use xlink:href="#path-1"></use>
                    </mask>
                    <use id="Mask" fill="#FFFFFF" fill-rule="nonzero" xlink:href="#path-1"></use>
                    <g id="11111111" mask="url(#mask-2)">
                        <g transform="translate(32.000000, 13.000000)" id="分组">
                            <g>
                                <path d="M15.2865958,18.3742101 C12.2515329,18.3741865 9.51530858,20.2024461 8.35382387,23.0064719 C7.19233916,25.8104976 7.83432939,29.0380826 9.98043462,31.1842046 C12.1265399,33.3303266 15.3541199,33.972342 18.1581547,32.8108791 C20.9621895,31.6494163 22.7904704,28.9132062 22.7904704,25.8781433 C22.7904704,21.7338583 19.4308808,18.3742425 15.2865958,18.3742101 Z M15.2865958,28.9671033 L12.1974018,25.8779093 L15.2865958,22.7887152 L18.3757899,25.8779093 L15.2865958,28.9671033 Z" id="形状" fill="#B89E5D" fill-rule="nonzero"></path>
                                <path d="M14.9377158,0.651831642 C13.0861818,0.651807978 11.4169497,1.76713007 10.7083874,3.47771991 C9.99982507,5.18830976 10.3914734,7.15729191 11.7007057,8.46652417 C13.0099379,9.77575642 14.9789201,10.1674048 16.6895099,9.45884246 C18.4000998,8.75028014 19.5154219,7.08104804 19.5153982,5.22951403 C19.5153982,2.70132986 17.4659,0.651831642 14.9377158,0.651831642 Z M14.9377158,7.11392239 L13.0533075,5.22951403 L14.9377158,3.34516418 L16.8220657,5.22951403 L14.9377158,7.11392239 Z" id="形状" fill="#B89E5D" fill-rule="nonzero"></path>
                                <path d="M50.10936,26.9834663 C47.9523756,26.9834426 46.0077687,28.2827604 45.1823101,30.2755473 C44.3568515,32.2683343 44.8131021,34.562143 46.338312,36.0873696 C47.8635219,37.6125962 50.1573256,38.068872 52.1501216,37.2434353 C54.1429176,36.4179986 55.4422567,34.4734059 55.4422567,32.3164215 C55.4422722,30.9020392 54.8804219,29.545581 53.8803081,28.5454562 C52.8801943,27.5453314 51.5237423,26.9834663 50.10936,26.9834663 Z M50.10936,34.51168 L47.9141015,32.3164215 L50.10936,30.1211045 L52.3046185,32.3164215 L50.10936,34.51168 Z" id="形状" fill="#B89E5D" fill-rule="nonzero"></path>
                                <path d="M42.0414149,34.4593158 C37.5501382,34.4594774 33.909355,38.1004789 33.9094627,42.5917556 C33.9095704,47.0830323 37.5505283,50.7238592 42.041805,50.7238054 C46.5330817,50.7237515 50.1739522,47.0828373 50.1739522,42.5915606 C50.1739522,40.4347045 49.3171245,38.3661919 47.7919695,36.8410917 C46.2668145,35.3159916 44.198271,34.4592382 42.0414149,34.4593158 Z M42.206991,45.2066687 L39.3907928,42.390529 L42.206991,39.5742722 L45.0231307,42.3904119 L42.206991,45.2066687 Z" id="形状" fill="#B89E5D" fill-rule="nonzero"></path>
                                <path d="M43.0934376,17.7986137 C41.132013,17.7985901 39.3637098,18.9801055 38.6130887,20.7922187 C37.8624676,22.604332 38.2773515,24.6901763 39.6642798,26.0771213 C41.051208,27.4640662 43.1370473,27.8789753 44.9491696,27.1283761 C46.7612919,26.3777768 47.9428287,24.6094879 47.9428287,22.6480633 C47.9428442,21.3619147 47.4319345,20.1284381 46.5224956,19.2189882 C45.6130567,18.3095383 44.3795862,17.7986137 43.0934376,17.7986137 Z M43.0934376,24.6439869 L41.0974555,22.6480633 L43.0937301,20.6518472 L45.0899463,22.6480633 L43.0934376,24.6439869 Z" id="形状" fill="#B89E5D" fill-rule="nonzero"></path>
                                <path d="M18.9272812,32.3850507 C18.9272812,32.3850507 10.9944299,39.243003 4.26045493,30.909317 C0.401127164,25.6846006 -0.964261493,18.6940704 0.692377313,13.3783749 C2.34901612,8.0626794 5.68043104,4.27607642 9.8674591,2.51026269 C9.8674591,2.51026269 6.75451104,7.91699582 12.1612442,11.0982221 C15.0417352,12.2292319 18.3030231,10.9018879 19.5750173,8.08081672 C20.1530987,6.80744433 20.1440895,5.34469477 19.5503668,4.07853967 C18.9566441,2.81238458 17.837857,1.87002961 16.4892167,1.50013134 C15.0282854,1.00866866 11.164394,2.60592239 11.164394,2.60592239 C11.164394,2.60592239 14.0169839,-2.45561672 20.5533206,1.52938507 C21.4112155,2.17109493 21.9905564,2.2939606 23.3207236,1.42728955 C25.013754,0.471570149 31.9223737,-0.465953433 35.7999558,5.79639284 C36.5554042,7.2527606 36.891237,9.56210866 37.8833481,9.54391284 C38.8754591,9.52571701 44.3687248,10.8954352 44.3268334,15.5722293 C44.3141373,17.8997731 43.6876979,18.6493707 44.0856072,19.3408119 C44.0856072,19.3408119 43.6204728,20.1143391 42.0076561,20.1916275 C41.471651,20.1142992 40.931049,20.0731339 40.3895152,20.0684107 C40.0051212,20.164129 40.8212418,18.3721624 39.1268072,19.3178185 C37.2838221,20.3691391 35.5632931,24.3832191 37.706831,27.3596693 C39.3998615,29.694117 42.4172669,30.7456716 45.9944716,28.8205421 C48.0027988,27.267871 47.7688275,32.6199582 48.9991809,36.3111355 C49.1351522,36.7191666 49.3409815,37.4779499 48.5570985,37.3357182 C47.7186866,37.1835988 40.3260346,35.5872227 40.3260346,35.5872227 C40.3260346,35.5872227 40.0962173,33.5719331 35.3311355,36.3981946 C32.2591427,38.2411797 29.3464072,44.1624275 31.003046,48.208394 C32.2251499,51.1930937 33.6108406,53.5604812 37.7887415,57.3425206 C41.0109815,60.4964239 46.8047415,66.7360107 46.6042949,70.7228263 C46.6407451,73.6173075 46.5315116,77.1854436 37.0287296,80.6988752 C34.3526567,81.4088633 26.3790842,83.5023773 21.7187307,77.8407857 C21.0451928,77.0762101 20.77208,75.5470006 23.7758531,74.7824251 C26.7796263,74.0178496 32.9691307,73.3807033 34.5711236,66.6264848 C34.8077863,64.7878293 35.2082699,62.25744 30.5297206,55.9040561 C29.0369612,53.5738794 25.3960418,48.0214627 27.8718436,39.9751069 C28.7821027,36.2247785 32.4776096,26.5944501 27.9446854,21.0420919 C27.0162304,19.8587785 23.6119737,15.3623045 15.4927761,16.4726591 C12.5072573,17.146197 8.42039403,19.5626137 8.22421851,23.3355845" id="路径" fill="#B89E5D"></path>
                            </g>
                            <g transform="translate(4.844776, 48.226866)">
                                <text id="JIAFU-FINANCIAL-CONSU" fill="#707070" transform="translate(1.979186, 11.949389) rotate(90.000000) translate(-1.979186, -11.949389) " font-family="Helvetica" font-size="1.92079736" font-weight="normal">
                                    <tspan x="-9.72230678" y="12.9456371">JIAFU FINANCIAL CONSU</tspan>
                                </text>
                                <g transform="translate(3.259701, 16.967164)" fill="#707070" id="路径">
                                    <path d="M4.47634746,1.6918603 L3.71118687,1.6918603 L3.71118687,1.2998603 L5.91879045,1.2998603 L5.91879045,0.270128955 L6.69547701,0.270128955 L6.69547701,1.29757851 L7.08455164,1.29757851 L7.08455164,1.69191881 L6.69904597,1.69191881 C6.69904597,1.73369313 6.69904597,1.76797851 6.69904597,1.80202985 C6.69861692,3.13170945 6.69779781,4.46136955 6.69658866,5.79101015 C6.70517082,6.05008761 6.64050137,6.30633196 6.51000836,6.53031045 C6.34380255,6.8101262 6.05472632,6.99452192 5.73092299,7.02727284 C5.70983498,7.03369191 5.68705827,7.03144221 5.66763355,7.0210216 C5.64820884,7.01060099 5.6337379,6.99286878 5.62742328,6.97174925 C5.60062687,6.90663045 5.56552239,6.84490507 5.53223164,6.77814806 C5.80776008,6.53303865 5.94894596,6.1706079 5.91182806,5.80370627 C5.92013612,4.73471642 5.91703522,3.66566806 5.91849791,2.5966197 C5.91884896,2.33013771 5.91939502,2.06363622 5.92013612,1.79711522 C5.92013612,1.76552119 5.92013612,1.73398567 5.92013612,1.69765254 L5.2629803,1.69765254 C5.2629803,1.76423403 5.2629803,1.83087403 5.2629803,1.89745552 C5.26674826,2.73845962 5.20042483,3.57831506 5.06469851,4.40830328 C4.96109212,5.10888619 4.74382519,5.78786017 4.42146746,6.41844418 C4.31853058,6.62577083 4.17808431,6.81223903 4.00723463,6.96841433 C3.94685493,7.02042746 3.90268179,7.03142687 3.83551522,6.97087164 C3.7114794,6.85900537 3.70679881,6.86397851 3.75729075,6.70425313 C3.9844375,5.96034231 4.14925668,5.19881196 4.2500406,4.42755224 C4.37027343,3.57679522 4.43469015,2.72135761 4.47599642,1.86375522 C4.47851224,1.81115701 4.47634746,1.75820776 4.47634746,1.6918603 Z"></path>
                                    <polygon points="2.66519045 0.91382806 1.36503761 0.91382806 1.36503761 4.94399761 0.583319403 4.94399761 0.583319403 0.532534925 3.43848358 0.532534925 3.43848358 4.94341254 2.66519045 4.94341254"></polygon>
                                    <path d="M2.0289803,5.74402866 C1.89534925,5.93429493 1.77470687,6.13187463 1.62878925,6.30856716 C1.33743338,6.65599987 0.943426386,6.90211341 0.503398209,7.01153433 C0.443603582,7.0277409 0.414174328,7.01954985 0.390946866,6.95759045 C0.324014328,6.77885015 0.32073791,6.77937672 0.459868657,6.64165015 C1.00002455,6.12483457 1.37419833,5.45899182 1.53476776,4.72886567 C1.60025775,4.38272587 1.62858006,4.03057989 1.61925254,3.67842269 C1.61849194,2.92057552 1.6213003,2.16266985 1.62264597,1.40482269 C1.62264597,1.37311164 1.62264597,1.3414591 1.62264597,1.30536 L2.40079522,1.30536 L2.40079522,1.39791881 C2.40038567,2.28015284 2.40278448,3.16238687 2.3974603,4.0446209 C2.39617313,4.25378507 2.36879164,4.46289075 2.3543403,4.65982687 C2.38683474,4.69200316 2.41611031,4.72727493 2.44175045,4.7651403 C2.80761711,5.45092577 3.17231363,6.13729632 3.53584,6.82425194 C3.54660537,6.84467104 3.55608358,6.86579224 3.57135403,6.89732776 C3.53186149,6.89908299 3.50114507,6.9015403 3.47042866,6.90159881 C3.22768119,6.90159881 2.98481672,6.89914149 2.74212776,6.90335403 C2.68064632,6.91142399 2.62146922,6.87696613 2.5981409,6.81951284 C2.41033194,6.45776119 2.21731582,6.09864239 2.0289803,5.74402866 Z"></path>
                                </g>
                                <g transform="translate(3.259701, 0.000000)" fill="#707070">
                                    <polygon id="路径" points="3.32316537 0.856315224 3.32316537 0.468820299 4.11003224 0.468820299 4.11003224 0.853155821 7.09560955 0.853155821 7.09560955 1.24287403 4.1175797 1.24287403 4.1175797 1.63633672 6.82963463 1.63633672 6.82963463 2.01827343 0.595196418 2.01827343 0.595196418 1.63961313 3.31690507 1.63961313 3.31690507 1.24995343 0.335306269 1.24995343 0.335306269 0.856315224"></polygon>
                                    <path d="M0.592739104,3.5836406 L0.592739104,2.35767522 L6.82746985,2.35767522 L6.82746985,3.58381612 L0.592739104,3.5836406 Z M6.05552239,2.74517015 L1.37896239,2.74517015 L1.37896239,3.19327881 L6.05552239,3.19327881 L6.05552239,2.74517015 Z" id="形状" fill-rule="nonzero"></path>
                                    <path d="M6.83203343,5.15737433 L6.83203343,7.09432239 L3.97903403,7.09432239 L3.97903403,5.15737433 L6.83203343,5.15737433 Z M6.05768716,5.5468 L4.76139582,5.5468 L4.76139582,6.70056716 L6.05768716,6.70056716 L6.05768716,5.5468 Z" id="形状" fill-rule="nonzero"></path>
                                    <path d="M0.466421493,7.24357493 C0.418211343,7.14680358 0.350342687,7.07138746 0.353619104,6.99924776 C0.356661493,6.93284179 0.432955224,6.86731343 0.482335522,6.80582209 C0.758642773,6.44590758 0.960861062,6.03478939 1.07729791,5.59623881 C1.08139343,5.58243104 1.08256358,5.56786269 1.08695164,5.54293851 L0.335306269,5.54293851 L0.335306269,5.15035343 L0.544762985,5.15035343 C0.734327164,5.15035343 0.923891343,5.14824716 1.11333851,5.15146507 C1.1736597,5.15251821 1.19741373,5.13157254 1.20250388,5.07212896 C1.20998757,4.98670674 1.22182143,4.90172161 1.2379594,4.81750448 C1.24217194,4.79515463 1.26721313,4.75940657 1.28289313,4.75899701 C1.52499701,4.75525254 1.76721791,4.75636418 2.02154985,4.75636418 L1.9819403,5.14713552 L3.59025194,5.14713552 C3.61607449,5.59421401 3.58883466,6.0427775 3.50910209,6.48344597 C3.38544935,6.88794059 3.03319014,7.18022904 2.61282627,7.22713433 C2.56912171,7.23937934 2.5236352,7.21449294 2.5103797,7.17108418 C2.48352478,7.10596537 2.44847881,7.04429851 2.41524657,6.9776 C2.68396669,6.73987098 2.82636184,6.39036348 2.80028418,6.03252896 C2.80613493,5.87338866 2.80127881,5.71389731 2.80127881,5.54106627 L2.59515701,5.54106627 C2.39079045,5.54106627 2.18642388,5.5436991 1.98217433,5.53960358 C1.91676299,5.53825791 1.89207284,5.5601397 1.87381851,5.62303522 C1.71596567,6.22242726 1.336501,6.73956733 0.812083582,7.06998328 C0.705892537,7.13709134 0.586888358,7.18383881 0.466421493,7.24357493 Z" id="路径"></path>
                                    <path d="M0.335306269,4.62232358 L0.335306269,4.23716896 L1.28195701,4.23716896 L1.10889194,3.71879284 L1.36925015,3.71879284 C1.52025791,3.71879284 1.67138269,3.72130866 1.82227343,3.71744716 C1.84363471,3.71373714 1.86558637,3.71887148 1.8830862,3.73167086 C1.90058604,3.74447023 1.91212992,3.76383452 1.91506627,3.78531582 C1.95186746,3.90683582 1.99896597,4.02519642 2.03459701,4.14712597 C2.03813663,4.17568115 2.05314346,4.20156667 2.07616509,4.21882737 C2.09918672,4.23608808 2.12824093,4.24323778 2.15664358,4.23863164 C3.24055284,4.23566726 4.32446209,4.23543323 5.40837134,4.23792955 C5.47050627,4.23792955 5.50245134,4.22336119 5.52058866,4.15970507 C5.55703881,4.03198328 5.60080239,3.90613373 5.64731582,3.78168836 C5.65691104,3.75588657 5.69148896,3.72201075 5.71506746,3.72154269 C5.95494806,3.71715463 6.19430209,3.71885134 6.44974567,3.71885134 L6.27884537,4.23371701 L7.0920991,4.23371701 L7.0920991,4.62238209 L0.335306269,4.62232358 Z" id="路径"></path>
                                </g>
                                <g transform="translate(3.259701, 25.158209)" fill="#707070">
                                    <path d="M1.37539343,1.62562985 C1.63077851,1.62562985 1.87048358,1.62393313 2.11001313,1.62832119 C2.14088986,1.63630179 2.16628474,1.65821407 2.1787009,1.68758925 C2.26115741,1.89969831 2.34059104,2.11297751 2.41700179,2.32742687 C2.42805519,2.37733199 2.47578169,2.41022217 2.52635224,2.40278448 C3.31994746,2.4006002 4.11356219,2.4006002 4.90719642,2.40278448 C4.95774046,2.41032419 5.00554907,2.37761841 5.0168394,2.32777791 C5.09248955,2.11633194 5.17480955,1.90722627 5.25028418,1.69589731 C5.25959674,1.64894357 5.30407944,1.6175304 5.35144358,1.6244597 C5.58213851,1.62773612 5.81289194,1.62580537 6.06020299,1.62580537 L5.7670806,2.39728478 L6.83191642,2.39728478 C6.83396418,2.4374209 6.83677254,2.46585552 6.83677254,2.49429015 C6.83677254,3.65215284 6.83653851,4.81001552 6.83607045,5.96787821 C6.85356189,6.28765379 6.75285802,6.60269697 6.55312836,6.85303761 C6.38197643,7.06188923 6.13285659,7.19165984 5.86361791,7.21221493 C5.82904856,7.21111556 5.79681323,7.19450362 5.77585672,7.16698866 C5.73815322,7.10212674 5.70410721,7.0352067 5.67387821,6.96654209 C5.96967977,6.69078872 6.11397847,6.28907996 6.06125612,5.88813254 C6.06494209,4.88426149 6.06254328,3.88033194 6.06225075,2.8764609 C6.06225075,2.85346746 6.05897433,2.83047403 6.05675104,2.8020394 L1.3751009,2.8020394 L1.3751009,2.91905433 C1.3751009,4.30790448 1.3751009,5.69675463 1.3751009,7.08560478 C1.3751009,7.23977194 1.39300418,7.21976239 1.23597015,7.22046448 C1.02592836,7.2214591 0.815945075,7.22046448 0.597887761,7.22046448 L0.597887761,2.40389612 L1.66272358,2.40389612 L1.37539343,1.62562985 Z" id="路径"></path>
                                    <path d="M1.89745552,4.42755224 C1.88983953,4.42513164 1.88199888,4.4234851 1.87405254,4.42263761 C1.61076896,4.48190567 1.61076896,4.48190567 1.50691821,4.20820776 C1.72788834,4.02565984 1.91971761,3.81047093 2.07578627,3.57006687 C2.16729194,3.42555343 2.24656955,3.27308299 2.32660776,3.12172418 C2.34295611,3.07739306 2.38703205,3.04956067 2.43408597,3.05385552 C2.66197254,3.05742448 2.88997612,3.05520119 3.1179797,3.05555224 C3.14062209,3.05555224 3.16332299,3.05877015 3.1948,3.06140299 C3.06157543,3.54178679 2.75245296,3.95444441 2.32888955,4.21733493 L4.98752716,4.21733493 L4.23728597,3.05549373 L4.41678687,3.05549373 C4.61811104,3.05549373 4.81949373,3.05350448 5.0207594,3.05754149 C5.05706863,3.05861545 5.09128809,3.0747711 5.11519045,3.10212418 C5.37946866,3.5052991 5.6401194,3.91087284 5.90123821,4.31609552 C5.90588678,4.32779019 5.90926071,4.33995203 5.91130149,4.35237015 L5.54042269,4.35237015 L5.54042269,6.69266866 L1.89745552,6.69266866 L1.89745552,4.42755224 Z M2.68221612,6.29838687 L4.75010388,6.29838687 L4.75010388,4.62191403 L2.68192358,4.62191403 L2.68221612,6.29838687 Z" id="形状" fill-rule="nonzero"></path>
                                    <polygon id="路径" points="0.336066866 1.35567642 0.336066866 0.971048358 3.32275582 0.971048358 3.32275582 0.456182687 4.10903761 0.456182687 4.10903761 0.964202985 7.09473194 0.964202985 7.09473194 1.35544239"></polygon>
                                </g>
                                <g transform="translate(3.259701, 8.776119)" fill="#707070">
                                    <path d="M6.83121433,6.77498866 L0.596249552,6.77498866 L0.596249552,4.3128191 L6.83121433,4.3128191 L6.83121433,6.77498866 Z M1.37896239,5.34442269 L3.31871881,5.34442269 L3.31871881,4.70382448 L1.37896239,4.70382448 L1.37896239,5.34442269 Z M6.0548203,5.34395463 L6.0548203,4.70452657 L4.11541493,4.70452657 L4.11541493,5.34395463 L6.0548203,5.34395463 Z M1.38165373,5.74578388 L1.38165373,6.37918567 L3.31784119,6.37918567 L3.31784119,5.74525731 L1.38165373,5.74578388 Z M4.11553194,6.37824955 L6.05733612,6.37824955 L6.05733612,5.74941134 L4.11553194,5.74941134 L4.11553194,6.37824955 Z" id="形状" fill-rule="nonzero"></path>
                                    <path d="M6.57893015,3.96516776 L0.855671642,3.96516776 L0.855671642,2.43765493 L6.57893015,2.43765493 L6.57893015,3.96516776 Z M1.6315391,3.57012537 L5.79253134,3.57012537 L5.79253134,2.83041552 L1.6315391,2.83041552 L1.6315391,3.57012537 Z" id="形状" fill-rule="nonzero"></path>
                                    <polygon id="路径" points="4.10816 0.529492537 6.96689313 0.529492537 6.96689313 1.43635821 6.19114269 1.43635821 6.19114269 0.930093134 1.24550687 0.930093134 1.24550687 1.43746985 0.464022687 1.43746985 0.464022687 0.530604179 3.32503761 0.530604179 3.32503761 0.146093134 4.10839403 0.146093134"></polygon>
                                    <polygon id="路径" points="6.8333206 1.70824239 6.8333206 2.08421134 0.595781493 2.08421134 0.595781493 1.70824239"></polygon>
                                </g>
                            </g>
                        </g>
                    </g>
                </g>
                <circle id="椭圆形-copy" stroke="#FFEFC8" stroke-width="2" fill-rule="nonzero" cx="57" cy="57" r="56"></circle>
            </g>
        </g>
    </g>
</svg>