<?xml version="1.0" encoding="UTF-8"?>
<svg width="44px" height="46px" viewBox="0 0 44 46" version="1.1" xmlns="http://www.w3.org/2000/svg" xmlns:xlink="http://www.w3.org/1999/xlink">
    <!-- Generator: Sketch 52.4 (67378) - http://www.bohemiancoding.com/sketch -->
    <title>客服</title>
    <desc>Created with Sketch.</desc>
    <g id="Page-1" stroke="none" stroke-width="1" fill="none" fill-rule="evenodd">
        <g id="iPhone-8-Copy-6" transform="translate(-28.000000, -61.000000)" fill="#FFE3AB" fill-rule="nonzero">
            <g id="客服" transform="translate(28.000000, 61.000000)">
                <path d="M22.2047097,36.0367049 C22.4239324,36.0367049 22.6470265,36.0232454 22.8713809,35.9967316 C25.0246702,35.7381658 26.8531318,34.2331366 27.5279056,32.1592086 C27.5787725,32.0041321 27.5052181,31.837937 27.3568039,31.7697393 C27.2098301,31.7013167 27.0321112,31.7605113 26.9491486,31.8995174 C26.941226,31.9127968 26.0857172,33.2946202 22.7552424,33.7444094 C22.256747,33.8113917 21.7716661,33.8464133 21.3118385,33.8464133 C18.9784444,33.8449278 17.9385545,32.965471 17.9291013,32.9573683 C17.8117474,32.8529787 17.6325429,32.8502328 17.512083,32.9519665 C17.3906327,33.0535652 17.3626334,33.2304739 17.4453708,33.3656538 C18.4612679,35.0124801 20.2839225,36.0367049 22.2047097,36.0367049 Z M40.1125505,15.3962326 C40.0830657,15.3962326 40.0563268,15.4015443 40.0285076,15.4015443 C38.0771103,6.95309663 30.6205216,0.651005966 21.6807359,0.651005966 C12.4949886,0.651005966 4.86734319,7.30124213 3.1768974,16.0992308 C1.53304207,16.3950239 0.281851993,17.8397332 0.281851993,19.5871679 L0.281851993,26.5802378 C0.281851993,28.540188 1.85359341,30.1294402 3.79432223,30.1294402 C4.88895036,30.1294402 5.85524092,29.6125337 6.49791912,28.8186053 C8.05106937,32.9265331 11.2128283,36.2386419 15.2142507,37.9859865 C15.2238389,37.9652797 15.299554,37.8179008 15.3906642,37.7004568 C15.4537752,37.6192049 15.5243586,37.5524927 15.5848586,37.5524927 C15.6477445,37.5524927 15.7052736,37.5751352 15.7544749,37.6100218 C14.8283827,36.9204831 11.483368,33.3763673 10.7587626,28.4304866 C10.4407321,26.2534294 12.071308,24.1163904 13.970308,23.7631132 C17.0189444,23.1952498 20.0516455,22.5487003 23.1002368,21.9917756 C25.0381747,21.6382283 26.362469,20.5752457 27.1724227,18.8052135 C27.3621607,18.3913912 27.6361215,17.5546986 27.7618933,16.3482084 C27.7952043,16.1688239 27.9424032,16.0310332 28.1308357,16.0310332 C28.2565624,16.0310332 28.3635179,16.0952245 28.4343263,16.1878652 L28.5183692,16.1354678 C29.7199078,17.8800215 32.1029084,21.7426179 32.4451119,25.8156591 C32.8380022,30.472364 32.6187795,33.661672 29.0545421,36.9245794 C29.0502657,36.9286308 29.0449089,36.9337625 29.0397772,36.9380839 C28.9890449,36.9920496 28.9608205,37.063342 28.960866,37.13741 C28.960866,37.2377033 29.0143438,37.3234568 29.0917694,37.3756741 C29.1210291,37.3878731 29.1505589,37.4039435 29.1800887,37.4160975 C29.2040817,37.4214543 29.2269043,37.4291518 29.2508972,37.4291518 C29.2750252,37.4291518 29.2964523,37.4214093 29.3178344,37.4160975 C29.3685663,37.3893586 29.4166872,37.3583433 29.4660686,37.3316045 C33.0707294,35.3457257 35.8359067,32.0296106 37.1136556,28.0408373 C37.6309672,28.8092422 38.4406959,29.3623857 39.381553,29.5552747 C37.8726524,36.4183415 31.7515668,40.7135764 24.1681711,41.3657077 C23.7137003,40.2383538 22.5951692,39.4375831 21.2812734,39.4375831 C19.5653041,39.4375831 18.1738925,40.796764 18.1738925,42.4715896 C18.1738925,44.1464152 19.5651241,45.5039756 21.2812734,45.5039756 C22.6646273,45.5039756 23.8234017,44.6151107 24.2254751,43.3941257 C33.0037472,42.6804139 40.0405266,37.4626879 41.5094089,29.3557685 C42.8071894,28.8133386 43.7185167,27.5401812 43.7185167,26.0539232 L43.7185167,18.9780258 C43.7185167,17.0002497 42.1039661,15.3962326 40.1125505,15.3962326 Z M36.8742212,17.4287018 C34.5847617,11.2269494 28.6520186,6.79648968 21.6728583,6.79648968 C14.7227326,6.79648968 8.81141661,11.189317 6.50071005,17.3511411 C6.38560686,17.2103344 6.25092218,17.0899194 6.11853326,16.9682891 C7.42680227,9.45948311 13.888831,3.75046419 21.6807359,3.75046419 C29.4352334,3.75046419 35.8771404,9.40343951 37.2284437,16.8597581 C37.0947494,17.0391876 36.9717686,17.2265398 36.8742212,17.4287468 L36.8742212,17.4287018 Z" id="形状"></path>
            </g>
        </g>
    </g>
</svg>