<?xml version="1.0" encoding="UTF-8"?>
<svg width="319px" height="152px" viewBox="0 0 319 152" version="1.1" xmlns="http://www.w3.org/2000/svg" xmlns:xlink="http://www.w3.org/1999/xlink">
    <!-- Generator: Sketch 52.4 (67378) - http://www.bohemiancoding.com/sketch -->
    <title>分组 6</title>
    <desc>Created with Sketch.</desc>
    <defs>
        <path d="M42,0 L216,-7.10542736e-15 C239.195959,-1.1366456e-14 258,18.8040405 258,42 L258,42 C258,65.1959595 239.195959,84 216,84 L42,84 C18.8040405,84 1.70515405e-14,65.1959595 1.42108547e-14,42 L0,42 C-2.84068575e-15,18.8040405 18.8040405,-2.84439873e-15 42,-7.10542736e-15 Z" id="path-1"></path>
        <filter x="-20.2%" y="-59.5%" width="140.3%" height="223.8%" filterUnits="objectBoundingBox" id="filter-2">
            <feOffset dx="0" dy="2" in="SourceAlpha" result="shadowOffsetOuter1"></feOffset>
            <feGaussianBlur stdDeviation="17" in="shadowOffsetOuter1" result="shadowBlurOuter1"></feGaussianBlur>
            <feColorMatrix values="0 0 0 0 0   0 0 0 0 0   0 0 0 0 0  0 0 0 0.1 0" type="matrix" in="shadowBlurOuter1"></feColorMatrix>
        </filter>
    </defs>
    <g id="Page-1" stroke="none" stroke-width="1" fill="none" fill-rule="evenodd">
        <g id="iPhone-8-Copy-4" transform="translate(-431.000000, -1354.000000)">
            <g id="分组-6" transform="translate(464.000000, 1386.000000)">
                <g id="矩形" fill-rule="nonzero">
                    <use fill="black" fill-opacity="1" filter="url(#filter-2)" xlink:href="#path-1"></use>
                    <use fill="#FFFFFF" xlink:href="#path-1"></use>
                </g>
                <g id="分组-5" transform="translate(32.000000, 18.000000)">
                    <text id="转人工客服" font-family="PingFangSC-Regular, PingFang SC" font-size="28" font-weight="normal" letter-spacing="-0.560000181" fill="#333333">
                        <tspan x="56" y="34">转人工客服</tspan>
                    </text>
                    <g id="分组-4" fill-rule="nonzero">
                        <circle id="椭圆形" fill="#FFD37C" cx="24" cy="24" r="24"></circle>
                        <g id="客服" transform="translate(8.275862, 7.448276)" fill="#0F0F0D">
                            <path d="M15.8521765,25.733437 C17.5732992,25.733437 19.0988398,24.620397 19.6286895,22.9810632 C19.6642499,22.870826 19.6144654,22.7534767 19.5077842,22.7036921 C19.4011031,22.6574636 19.2766417,22.6965801 19.2197451,22.7961491 C19.212633,22.8068173 18.6081064,23.7847279 16.2433408,24.1047714 C15.9055171,24.1509999 15.5605813,24.1758921 15.2192016,24.1758921 C13.5656437,24.1758921 12.8259876,23.5500293 12.8188756,23.5464733 C12.7335306,23.4717965 12.6090693,23.4717965 12.5201683,23.5429173 C12.4348234,23.614038 12.4134872,23.7420554 12.4739398,23.8380685 C13.1993717,25.0044491 14.4902137,25.729881 15.8521765,25.733437 Z M26.2607016,12.5298656 C24.6355919,8.13104587 20.4287982,4.98750773 15.4787925,4.98750773 C10.5501229,4.98750773 6.35399735,8.10259756 4.71821959,12.472969 C4.63287466,12.376956 4.54397369,12.284499 4.44796065,12.2027101 C5.37608673,6.87576424 9.95982051,2.82543625 15.4859045,2.82543625 C20.9870963,2.82543625 25.5566059,6.83664781 26.5167363,12.1244772 C26.4171672,12.2524946 26.3318223,12.3876241 26.2607016,12.5298656 Z M28.5579025,11.08967 C28.5365663,11.08967 28.5187861,11.093226 28.4974498,11.093226 C27.1141508,5.10130097 21.8227654,0.631360419 15.4823485,0.631360419 C8.96768574,0.631360419 3.55539496,5.35022367 2.35700994,11.5910714 C1.165737,11.8115458 0.298063581,12.8534652 0.305175658,14.0660743 L0.305175658,19.0267482 C0.305175658,20.4171593 1.42177178,21.5444235 2.79795873,21.5444235 C3.57317515,21.5444235 4.2594906,21.1781516 4.71466355,20.6162975 C5.81703552,23.521581 8.0431157,25.8685665 10.8950587,27.11318 C10.9306191,27.0420593 10.9732915,26.9744945 11.01952,26.9104858 C11.0657485,26.8535892 11.1155331,26.8038047 11.1582055,26.8038047 C11.200878,26.8038047 11.2435505,26.8180288 11.2791108,26.8429211 C10.6212437,26.3521878 8.24936594,23.8416245 7.73374034,20.3318144 C7.5097099,18.7884936 8.66542246,17.2700651 10.0131611,17.0211424 C12.1752326,16.6193101 14.3266359,16.1605811 16.4887074,15.7658608 C17.8648944,15.5169381 18.8036886,14.7595019 19.3762108,13.5042202 C19.5113402,13.209069 19.7069224,12.6152106 19.7958233,11.7617613 C19.8171596,11.6337439 19.9273968,11.5377309 20.0589702,11.5377309 C20.1443151,11.5377309 20.222548,11.5804033 20.2723325,11.6479681 L20.3327852,11.6124077 C21.1862344,12.8499091 22.8753528,15.5916149 23.1171634,18.4791183 C23.3945344,21.7826781 23.2416248,24.0443187 20.7132813,26.3592998 L20.7026132,26.369968 C20.6670528,26.4090844 20.6457166,26.4588689 20.6457166,26.5122095 C20.6457166,26.5797742 20.681277,26.6437829 20.7381736,26.6793433 C20.7595098,26.6864554 20.780846,26.7006795 20.8021823,26.7077916 C20.8199625,26.7113477 20.8341866,26.7149037 20.8519668,26.7184597 C20.869747,26.7184597 20.8839712,26.7149037 20.8981953,26.7077916 C20.9337557,26.6900114 20.9693161,26.6686752 21.0048765,26.647339 C23.5865605,25.2213675 25.5281576,22.8637139 26.4278354,20.0544434 L26.4278352,20.0544431 C26.8034844,20.6079014 27.3800712,20.9931448 28.0351646,21.1283667 C26.968353,25.9965836 22.6228738,29.0476648 17.2425874,29.5063937 C16.9012077,28.6742807 16.0904309,28.1337628 15.1943092,28.1373189 C13.978144,28.1373189 12.9895652,29.1010053 12.9895652,30.2887222 C12.9895652,31.4764391 13.978144,32.4401256 15.1943092,32.4401256 C16.1402154,32.4436816 16.9829966,31.8391551 17.2817038,30.9430333 C23.5083275,30.4380759 28.5010057,26.7362396 29.542925,20.9861252 C30.4923873,20.594961 31.111138,19.6703909 31.111138,18.6426957 L31.111138,13.6322373 C31.1182501,12.2276021 29.9732057,11.0896697 28.5579023,11.0896697 L28.5579025,11.08967 Z" id="形状"></path>
                        </g>
                    </g>
                </g>
            </g>
        </g>
    </g>
</svg>