<?xml version="1.0" encoding="UTF-8"?>
<svg width="108px" height="160px" viewBox="0 0 108 160" version="1.1" xmlns="http://www.w3.org/2000/svg" xmlns:xlink="http://www.w3.org/1999/xlink">
    <!-- Generator: Sketch 52.4 (67378) - http://www.bohemiancoding.com/sketch -->
    <title>分组 copy</title>
    <desc>Created with Sketch.</desc>
    <g id="Page-1" stroke="none" stroke-width="1" fill="none" fill-rule="evenodd">
        <g id="iPhone-8-Copy-2" transform="translate(-321.000000, -302.000000)">
            <g id="分组-copy" transform="translate(321.000000, 302.000000)">
                <g id="Bitmap">
                    <g id="11111111">
                        <g id="分组" fill="#FFDA78">
                            <path d="M29.7542669,35.9226131 C23.8467336,35.9225668 18.5208685,39.4969171 16.2601215,44.978945 C13.9993744,50.4609729 15.2489626,56.7710829 19.4262031,60.9668719 C23.6034437,65.1626609 29.8856976,66.4178371 35.3435511,64.147112 C40.8014046,61.8763869 44.3600228,56.5269426 44.3600228,50.5932239 C44.3600228,42.490914 37.8208216,35.9226763 29.7542669,35.9226131 Z M29.7542669,56.6323143 L23.7413713,50.5927664 L29.7542669,44.5532185 L35.7671624,50.5927664 L29.7542669,56.6323143 Z" id="形状" fill-rule="nonzero"></path>
                            <path d="M29.0751969,1.27436748 C25.4713182,1.27432121 22.2222771,3.45483856 20.8431112,6.79913781 C19.4639452,10.1434371 20.2262608,13.9929078 22.7745878,16.5525304 C25.3229149,19.112153 29.155398,19.8778475 32.484939,18.4925684 C35.8144799,17.1072893 37.9853747,13.8438467 37.9853287,10.2239937 C37.9853287,5.28125163 33.9961268,1.27436748 29.0751969,1.27436748 Z M29.0751969,13.9081179 L25.4073306,10.2239937 L29.0751969,6.5399839 L32.7429493,10.2239937 L29.0751969,13.9081179 Z" id="形状" fill-rule="nonzero"></path>
                            <path d="M97.53429,52.7541925 C93.335874,52.7541462 89.5508355,55.2943856 87.9441393,59.1903959 C86.3374432,63.0864063 87.2255023,67.5709312 90.1942144,70.552835 C93.1629266,73.5347387 97.6276516,74.4267834 101.506487,72.8130083 C105.385322,71.1992331 107.914393,67.3974452 107.914393,63.1804195 C107.914423,60.4152227 106.820821,57.7632708 104.874171,55.8079706 C102.927521,53.8526705 100.287284,52.7541925 97.53429,52.7541925 Z M97.53429,67.4722733 L93.2613761,63.1804195 L97.53429,58.8884515 L101.807204,63.1804195 L97.53429,67.4722733 Z" id="形状" fill-rule="nonzero"></path>
                            <path d="M81.8306112,67.3698983 C73.0886619,67.3702142 66.0021374,74.4885768 66.002347,83.269275 C66.0025567,92.0499733 73.0894211,99.1679944 81.8313704,99.1678891 C90.5733197,99.1677839 97.6600142,92.049592 97.6600142,83.2688938 C97.6600142,79.0521189 95.9922601,75.0080605 93.0236548,72.0264041 C90.0550496,69.0447476 86.0287775,67.3697467 81.8306112,67.3698983 Z M82.1528933,88.3815769 L76.6713646,82.8758656 L82.1528933,77.3699255 L87.6343081,82.8756368 L82.1528933,88.3815769 Z" id="形状" fill-rule="nonzero"></path>
                            <path d="M83.8782982,34.7972898 C80.0605254,34.7972435 76.6186494,37.1071726 75.1576191,40.6499557 C73.6965888,44.1927389 74.5041306,48.2706817 77.2036874,50.9822371 C79.9032442,53.6937924 83.9631814,54.5049629 87.490348,53.0374993 C91.0175145,51.5700356 93.3172915,48.1129313 93.3172915,44.2782361 C93.3173217,41.7637433 92.3228725,39.3522272 90.5527146,37.5742016 C88.7825567,35.796176 86.3816946,34.7972898 83.8782982,34.7972898 Z M83.8782982,48.1803788 L79.9932616,44.2782361 L83.8788676,40.3755214 L87.7643597,44.2782361 L83.8782982,48.1803788 Z" id="形状" fill-rule="nonzero"></path>
                            <path d="M36.8406009,63.3145936 C36.8406009,63.3145936 21.3998724,76.7222755 8.29267119,60.4294512 C0.780765373,50.2148371 -1.87686612,36.547958 1.34766299,26.1554746 C4.57219209,15.7629912 11.0565533,8.35996963 19.2063043,4.90770458 C19.2063043,4.90770458 13.1471733,15.4781716 23.6709931,21.6976477 C29.2776632,23.9088354 35.6255271,21.3138033 38.101373,15.7984507 C39.2265671,13.3089361 39.2090313,10.4491785 38.0533925,7.97377419 C36.8977537,5.49836984 34.7201145,3.65601295 32.0950825,2.93284105 C29.251484,1.97200389 21.7306955,5.09472467 21.7306955,5.09472467 C21.7306955,5.09472467 27.2830579,-4.80086864 40.0055704,2.99003374 C41.6754016,4.24461255 42.8030473,4.48482184 45.3921227,2.79043126 C48.6874855,0.921946134 62.1346203,-0.910965138 69.6820569,11.3322736 C71.1524831,14.1795544 71.8061578,18.6944596 73.737231,18.6588858 C75.6683043,18.6233119 86.3605536,21.301188 86.2790151,30.444583 C86.254303,34.9950621 85.0349834,36.4605675 85.8094854,37.8123739 C85.8094854,37.8123739 84.9041346,39.324663 81.7649021,39.4757661 C80.7216064,39.324585 79.6693633,39.2441046 78.6153064,39.2348704 C77.8671109,39.4220049 79.4556313,35.9186096 76.1575354,37.7674205 C72.5702966,39.8228113 69.2214099,47.6705632 73.3936533,53.4896905 C76.6890161,58.053667 82.5621801,60.1095153 89.5249537,56.3457789 C93.4340191,53.3102198 92.9786106,63.7738509 95.3734057,70.9903099 C95.6380642,71.7880335 96.0386961,73.2714975 94.5129239,72.9934266 C92.8810149,72.6960246 78.491746,69.5750196 78.491746,69.5750196 C78.491746,69.5750196 78.044423,65.6350153 68.7695316,71.1605153 C62.790117,74.7636547 57.1206854,86.3400267 60.3452145,94.2501187 C62.7239524,100.085374 65.4211004,104.71375 73.5530861,112.107849 C79.8249461,118.273907 91.1020861,130.47265 90.7119312,138.267099 C90.7828788,143.925972 90.5702637,150.901878 72.0737772,157.770835 C66.8649925,159.158901 51.3450031,163.251839 42.2739581,152.183109 C40.9629646,150.688321 40.43137,147.69863 46.2779999,146.203842 C52.1246297,144.709054 64.1720581,143.463397 67.2902227,130.258521 C67.7508697,126.663846 68.5303824,121.716793 59.4239204,109.29557 C56.5183709,104.739944 49.4315813,93.8846574 54.2505527,78.1535797 C56.022307,70.8214771 63.2153472,51.9936441 54.392334,41.1384719 C52.5851628,38.8250276 45.9590203,30.0341683 30.1555821,32.204974 C24.344483,33.5217784 16.3896955,38.2460089 16.0078539,45.6223786" id="路径"></path>
                        </g>
                        <text id="JIAFU-FINANCIAL-CONS" transform="translate(13.282354, 116.689319) rotate(90.000000) translate(-13.282354, -116.689319) " font-family="Helvetica" font-size="1.92079736" font-weight="normal" fill="#FFE3AB">
                            <tspan x="-9.49376504" y="117.685567">JIAFU FINANCIAL CONSU</tspan>
                        </text>
                        <path d="M24.4876774,130.765673 L22.9983469,130.765673 L22.9983469,129.999291 L27.2952896,129.999291 L27.2952896,127.986108 L28.8070545,127.986108 L28.8070545,129.99483 L29.5643605,129.99483 L29.5643605,130.765787 L28.8140013,130.765787 C28.8140013,130.847458 28.8140013,130.914488 28.8140013,130.981061 C28.8131661,133.580659 28.8115718,136.180219 28.8092183,138.779741 C28.8259228,139.286252 28.7000484,139.787224 28.446053,140.225115 C28.1225453,140.77217 27.5598791,141.132674 26.929619,141.196704 C26.8885727,141.209254 26.8442395,141.204855 26.8064307,141.184483 C26.7686218,141.16411 26.7404552,141.129442 26.7281642,141.088152 C26.6760069,140.960841 26.6076786,140.840165 26.5428805,140.709651 C27.0791769,140.230449 27.3539852,139.521876 27.2817378,138.804563 C27.2979089,136.714628 27.2918732,134.624578 27.2947202,132.534528 C27.2954035,132.013541 27.2964664,131.492516 27.2979089,130.971452 C27.2979089,130.909684 27.2979089,130.84803 27.2979089,130.776997 L26.018802,130.776997 C26.018802,130.907168 26.018802,131.037453 26.018802,131.167623 C26.0261361,132.811833 25.8970422,134.453798 25.6328607,136.076472 C25.4311982,137.44615 25.0083037,138.773583 24.3808574,140.00641 C24.1804981,140.411745 23.9071295,140.776301 23.5745828,141.081632 C23.457058,141.183321 23.3710781,141.204825 23.2403432,141.086437 C22.9989163,140.867732 22.9898059,140.877455 23.0880848,140.565182 C23.5302098,139.110795 23.8510185,137.62196 24.0471872,136.114104 C24.2812119,134.450827 24.4065944,132.778398 24.4869941,131.101737 C24.491891,130.998905 24.4876774,130.895386 24.4876774,130.765673 Z" id="路径" fill="#FFE3AB"></path>
                        <polygon id="路径" fill="#FFE3AB" points="20.9623896 129.244576 18.431735 129.244576 18.431735 137.123784 16.9101763 137.123784 16.9101763 128.499127 22.4675495 128.499127 22.4675495 137.12264 20.9623896 137.12264"></polygon>
                        <path d="M19.724052,138.68789 C19.4639487,139.059871 19.2291269,139.44615 18.9451087,139.791594 C18.3780053,140.470845 17.6110989,140.95201 16.7546154,141.165934 C16.6382295,141.197619 16.5809475,141.181605 16.5357369,141.060471 C16.4054575,140.711024 16.3990802,140.712053 16.6698883,140.44279 C17.7212631,139.432387 18.4495657,138.130627 18.7621026,136.703189 C18.8895742,136.026466 18.9447015,135.338001 18.9265462,134.649514 C18.9250657,133.16788 18.930532,131.686132 18.9331513,130.204498 C18.9331513,130.142501 18.9331513,130.080619 18.9331513,130.010043 L20.4477632,130.010043 L20.4477632,130.191001 C20.446966,131.915818 20.4516351,133.640635 20.441272,135.365452 C20.4387666,135.77438 20.3854705,136.183193 20.357342,136.568214 C20.4205901,136.631121 20.4775729,136.700079 20.5274796,136.774108 C21.2396129,138.114857 21.9494687,139.45675 22.6570468,140.799787 C22.6780008,140.839707 22.6964495,140.881 22.7261723,140.942654 C22.6493029,140.946086 22.5895156,140.95089 22.5297283,140.951004 C22.0572377,140.951004 21.5845193,140.9462 21.1121426,140.954436 C20.9924734,140.970213 20.8772894,140.902846 20.8318825,140.790522 C20.4663257,140.083277 20.0906336,139.381179 19.724052,138.68789 Z" id="路径" fill="#FFE3AB"></path>
                        <polygon id="路径" fill="#FFE3AB" points="22.2430908 95.9603761 22.2430908 95.2028018 23.774671 95.2028018 23.774671 95.9541993 29.5858839 95.9541993 29.5858839 96.7161203 23.7893616 96.7161203 23.7893616 97.485362 29.0681828 97.485362 29.0681828 98.2320697 16.9332941 98.2320697 16.9332941 97.4917676 22.2309056 97.4917676 22.2309056 96.7299609 16.4274365 96.7299609 16.4274365 95.9603761"></polygon>
                        <path d="M16.9285111,101.29245 L16.9285111,98.8956193 L29.0639692,98.8956193 L29.0639692,101.292794 L16.9285111,101.29245 Z M27.5614286,99.6531936 L18.4588386,99.6531936 L18.4588386,100.529271 L27.5614286,100.529271 L27.5614286,99.6531936 Z" id="形状" fill="#FFE3AB" fill-rule="nonzero"></path>
                        <path d="M29.0728519,104.369188 L29.0728519,108.156031 L23.5196923,108.156031 L23.5196923,104.369188 L29.0728519,104.369188 Z M27.5656422,105.130537 L25.0425036,105.130537 L25.0425036,107.386217 L27.5656422,107.386217 L27.5656422,105.130537 Z" id="形状" fill="#FFE3AB" fill-rule="nonzero"></path>
                        <path d="M16.6826429,108.447828 C16.5888053,108.258634 16.4567038,108.111192 16.4630811,107.970154 C16.4690029,107.840327 16.6175032,107.712215 16.7136184,107.591996 C17.2514307,106.888343 17.6450342,106.084584 17.8716702,105.227193 C17.8796419,105.200198 17.8819195,105.171716 17.8904605,105.122988 L16.4274365,105.122988 L16.4274365,104.355462 L16.835129,104.355462 C17.2041022,104.355462 17.5730753,104.351344 17.9418207,104.357635 C18.0592316,104.359694 18.1054671,104.318744 18.1153747,104.202529 C18.1299412,104.035524 18.1529749,103.869373 18.1843863,103.704724 C18.1925857,103.661028 18.2413266,103.591139 18.2718466,103.590338 C18.7430845,103.583018 19.2145502,103.585191 19.7095892,103.585191 L19.632492,104.349171 L22.7629557,104.349171 C22.8132175,105.223234 22.7601971,106.100201 22.6050033,106.961733 C22.3643221,107.752543 21.6786747,108.323983 20.8604665,108.415685 C20.7753987,108.439625 20.6868624,108.390971 20.6610616,108.306104 C20.6087904,108.178793 20.5405759,108.058231 20.4758917,107.927832 C20.9989362,107.463058 21.2760982,106.779751 21.2253399,106.080165 C21.236728,105.769037 21.2272759,105.457222 21.2272759,105.119328 L20.8260745,105.119328 C20.4282896,105.119328 20.0305047,105.124475 19.6329475,105.116468 C19.505629,105.113837 19.4575714,105.156617 19.4220407,105.279582 C19.1147914,106.451427 18.3761905,107.462465 17.3554495,108.108446 C17.1487562,108.239646 16.917123,108.33104 16.6826429,108.447828 Z" id="路径" fill="#FFE3AB"></path>
                        <path d="M16.4274365,103.323134 L16.4274365,102.570135 L18.2700245,102.570135 L17.9331657,101.556681 L18.4399344,101.556681 C18.7338602,101.556681 19.0280138,101.561599 19.3217119,101.55405 C19.3632901,101.546797 19.4060174,101.556834 19.4400796,101.581858 C19.4741418,101.606881 19.4966111,101.64474 19.5023265,101.686737 C19.5739574,101.924315 19.6656313,102.155717 19.7349845,102.394096 C19.7418741,102.449923 19.7710839,102.500531 19.8158938,102.534276 C19.8607038,102.568022 19.9172557,102.582 19.9725395,102.572995 C22.0822914,102.567199 24.1920433,102.566742 26.3017953,102.571622 C26.4227365,102.571622 26.4849153,102.54314 26.5202183,102.418689 C26.5911659,102.168986 26.6763486,101.922943 26.7668836,101.679645 C26.7855601,101.629201 26.8528635,101.562972 26.8987574,101.562057 C27.3656678,101.553478 27.8315533,101.556795 28.328756,101.556795 L27.9961108,102.563386 L29.5790511,102.563386 L29.5790511,103.323248 L16.4274365,103.323134 Z" id="路径" fill="#FFE3AB"></path>
                        <path d="M18.4518919,146.650141 C18.9489807,146.650141 19.4155495,146.646824 19.8817766,146.655403 C19.941876,146.671006 19.9913053,146.713845 20.0154725,146.771275 C20.1759682,147.185961 20.3305801,147.602933 20.4793081,148.022194 C20.5008228,148.119761 20.593719,148.184063 20.692151,148.169522 C22.2368274,148.165252 23.7815418,148.165252 25.3262941,148.169522 C25.4246745,148.184263 25.5177305,148.120321 25.5397063,148.02288 C25.6869539,147.609491 25.8471839,147.200678 25.9940899,146.787518 C26.0122161,146.695721 26.0987985,146.634306 26.1909895,146.647854 C26.6400207,146.654259 27.0891657,146.650484 27.570539,146.650484 L26.9999972,148.15877 L29.0726241,148.15877 C29.0766099,148.237238 29.0820762,148.29283 29.0820762,148.348421 C29.0820762,150.612108 29.0816207,152.875794 29.0807096,155.139481 C29.1147555,155.76466 28.9187426,156.380587 28.529983,156.870017 C28.196848,157.278334 27.7119541,157.532043 27.1879002,157.572229 C27.1206134,157.57008 27.0578697,157.537602 27.0170793,157.483809 C26.9436922,157.357 26.877424,157.226168 26.8185854,157.091925 C27.394342,156.552811 27.6752092,155.767448 27.5725889,154.983574 C27.5797633,153.020949 27.5750942,151.058211 27.5745248,149.095586 C27.5745248,149.050633 27.5681475,149.005679 27.5638201,148.950088 L18.4513225,148.950088 L18.4513225,149.178859 C18.4513225,151.894139 18.4513225,154.609419 18.4513225,157.324699 C18.4513225,157.626105 18.4861699,157.586985 18.1805144,157.588357 C17.771683,157.590302 17.3629656,157.588357 16.9385326,157.588357 L16.9385326,148.171696 L19.0111595,148.171696 L18.4518919,146.650141 Z" id="路径" fill="#FFE3AB"></path>
                        <path d="M19.4680484,152.128057 C19.4532244,152.123325 19.4379632,152.120106 19.4224962,152.118449 C18.9100335,152.234321 18.9100335,152.234321 18.7078954,151.699226 C19.137998,151.342335 19.51138,150.921628 19.8151565,150.451625 C19.9932657,150.169093 20.1475739,149.871005 20.3033626,149.57509 C20.3351835,149.48842 20.4209742,149.434006 20.5125613,149.442403 C20.9561262,149.44938 21.3999189,149.445034 21.8437116,149.44572 C21.8877833,149.44572 21.931969,149.452011 21.9932368,149.457158 C21.7339247,150.396336 21.1322399,151.203105 20.3078039,151.71707 L25.4826522,151.71707 L24.0223613,149.445606 L24.3717469,149.445606 C24.7636101,149.445606 25.1555871,149.441716 25.5473363,149.449609 C25.6180097,149.451709 25.6846154,149.483294 25.7311396,149.536771 C26.2455383,150.325 26.7528763,151.11792 27.2611254,151.910153 C27.2701735,151.933017 27.2767407,151.956794 27.2807129,151.981072 L26.5588238,151.981072 L26.5588238,156.556487 L19.4680484,156.556487 L19.4680484,152.128057 Z M20.9955289,155.785644 L25.0205247,155.785644 L25.0205247,152.508045 L20.9949595,152.508045 L20.9955289,155.785644 Z" id="形状" fill="#FFE3AB" fill-rule="nonzero"></path>
                        <polygon id="路径" fill="#FFE3AB" points="16.4289169 146.122367 16.4289169 145.370398 22.2422936 145.370398 22.2422936 144.363806 23.772735 144.363806 23.772735 145.357015 29.5841757 145.357015 29.5841757 146.12191"></polygon>
                        <path d="M29.0712575,124.689522 L16.9353439,124.689522 L16.9353439,119.875842 L29.0712575,119.875842 L29.0712575,124.689522 Z M18.4588386,121.892685 L22.2344359,121.892685 L22.2344359,120.640279 L18.4588386,120.640279 L18.4588386,121.892685 Z M27.560062,121.89177 L27.560062,120.641652 L23.785148,120.641652 L23.785148,121.89177 L27.560062,121.89177 Z M18.4640771,122.677369 L18.4640771,123.915705 L22.2327277,123.915705 L22.2327277,122.676339 L18.4640771,122.677369 Z M23.7853757,123.913874 L27.5649589,123.913874 L27.5649589,122.68446 L23.7853757,122.68446 L23.7853757,123.913874 Z" id="形状" fill="#FFE3AB" fill-rule="nonzero"></path>
                        <path d="M28.5802044,119.196164 L17.4402905,119.196164 L17.4402905,116.209791 L28.5802044,116.209791 L28.5802044,119.196164 Z M18.9504611,118.423834 L27.0495353,118.423834 L27.0495353,116.97766 L18.9504611,116.97766 L18.9504611,118.423834 Z" id="形状" fill="#FFE3AB" fill-rule="nonzero"></path>
                        <polygon id="路径" fill="#FFE3AB" points="23.7710268 112.479226 29.3353466 112.479226 29.3353466 114.252199 27.8254038 114.252199 27.8254038 113.262423 18.1990769 113.262423 18.1990769 114.254373 16.6779738 114.254373 16.6779738 112.481399 22.246735 112.481399 22.246735 111.729659 23.7714823 111.729659"></polygon>
                        <polygon id="路径" fill="#FFE3AB" points="29.0753572 114.783748 29.0753572 115.518789 16.9344329 115.518789 16.9344329 114.783748"></polygon>
                    </g>
                </g>
            </g>
        </g>
    </g>
</svg>