<?xml version="1.0" encoding="UTF-8"?>
<svg width="60px" height="60px" viewBox="0 0 60 60" version="1.1" xmlns="http://www.w3.org/2000/svg" xmlns:xlink="http://www.w3.org/1999/xlink">
    <!-- Generator: Sketch 52.4 (67378) - http://www.bohemiancoding.com/sketch -->
    <title>发送</title>
    <desc>Created with Sketch.</desc>
    <g id="Page-1" stroke="none" stroke-width="1" fill="none" fill-rule="evenodd">
        <g id="iPhone-8-Copy-8" transform="translate(-654.000000, -1254.000000)">
            <g id="发送" transform="translate(654.000000, 1254.000000)">
                <g id="分组" fill="#FFD37C">
                    <path d="M30.0000349,0 L30.0000336,2.997607e-14 C46.5686076,-7.24237141e-07 60.0000685,13.4314609 60.0000685,30.0000349 C60.0000692,46.5686089 46.5686076,60.0000698 30.0000336,60.0000698 C13.4314596,60.0000705 -1.31134137e-06,46.5686089 -1.31134137e-06,30.0000349 L-1.31134105e-06,30.0000381 C-3.81312717e-06,13.4314642 13.4314596,3.21853502e-06 30.0000336,3.21853502e-06 C30.000034,3.21853496e-06 30.0000345,3.2185349e-06 30.0000349,3.21853485e-06 L30.0000349,0 Z" id="路径"></path>
                </g>
                <path d="M42.7140731,18.5925216 C42.0638576,18.0115616 41.1440342,17.8414837 40.3290704,18.1515211 L16.5120309,27.1515316 L16.5120311,27.1515316 C15.3028012,27.607518 14.6921774,28.9574458 15.1481604,30.1666757 C15.3589399,30.725642 15.7755185,31.1828273 16.3125309,31.4445365 L20.0310352,33.2625387 C20.1043777,33.2990207 20.1716663,33.346578 20.2305355,33.4035389 C20.6175359,34.39804 22.1430377,38.2980446 22.8225385,39.7035462 L22.8225384,39.7035459 C23.1439659,40.3624334 23.7013284,40.8764301 24.3840402,41.1435476 C24.3450401,41.1435476 24.3015401,41.1315475 24.25504,41.1240475 C24.3689083,41.1680212 24.4863391,41.2021466 24.6060404,41.2260476 C25.3753596,41.3839761 26.1724347,41.1431051 26.7255428,40.5855469 L28.1115444,39.1995453 C28.3599968,38.9528894 28.741633,38.9002915 29.0475454,39.0705452 L35.0145641,42.4575491 L35.0145638,42.4575489 C35.366494,42.6583822 35.7643654,42.764826 36.1695651,42.7665493 C37.2461093,42.7650395 38.183839,42.0319176 38.4450678,40.9875472 L43.4280736,20.8980121 C43.6413146,20.0564232 43.3656407,19.1662718 42.7140727,18.5925094 L42.7140731,18.5925216 Z M21.7140487,32.92205 L34.4835753,25.6170415 L27.2760669,33.0000384 L27.2760667,33.0000386 C27.1603152,33.1188282 27.0713229,33.2610113 27.0150664,33.4170391 C27.0150664,33.4245391 27.0150664,33.4290391 27.0075664,33.4365391 C26.9925664,33.4830391 25.5675647,37.686044 24.7245638,39.5865462 L24.7245639,39.5865463 C24.5118683,39.4509714 24.3393869,39.2608795 24.2250633,39.0360457 C23.6010626,37.7250442 22.1445609,34.0140399 21.7155604,32.9205503 L21.7140487,32.92205 Z" id="形状" fill="#0F0F0D" fill-rule="nonzero"></path>
            </g>
        </g>
    </g>
</svg>