<?xml version="1.0" encoding="UTF-8"?>
<svg width="53px" height="44px" viewBox="0 0 53 44" version="1.1" xmlns="http://www.w3.org/2000/svg" xmlns:xlink="http://www.w3.org/1999/xlink">
    <!-- Generator: Sketch 63.1 (92452) - https://sketch.com -->
    <title>weixin</title>
    <desc>Created with Sketch.</desc>
    <g id="页面-1" stroke="none" stroke-width="1" fill="none" fill-rule="evenodd">
        <g id="iPhone-8-Copy-2备份" transform="translate(-197.000000, -690.000000)" fill="#FFFFFF" fill-rule="nonzero">
            <g id="分组" transform="translate(197.000000, 688.000000)">
                <g id="weixin" transform="translate(0.000000, 2.000000)">
                    <path d="M36.888,13.3368889 L37.736,13.3368889 C36.252,5.808 28.408,0 18.868,0 C8.48,0 0,7.09866667 0,15.7031111 C0,20.8657778 2.968,25.3831111 7.42,28.1795556 L7.632,28.3946667 L5.724,33.9875556 L12.72,30.3306667 L13.144,30.3306667 C15.052,30.7608889 16.96,31.1911111 19.08,31.1911111 L20.352,31.1911111 C19.928,29.9004444 19.716,28.8248889 19.716,27.5342222 C19.504,19.5751111 27.348,13.3368889 36.888,13.3368889 Z M25.44,7.744 C26.924,7.744 28.196,8.81955556 28.196,10.3253333 C28.196,11.8311111 26.924,12.9066667 25.44,12.9066667 C23.956,12.9066667 22.684,11.8311111 22.684,10.3253333 C22.684,8.81955556 23.956,7.744 25.44,7.744 L25.44,7.744 Z M12.296,12.9066667 C10.812,12.9066667 9.752,11.616 9.752,10.3253333 C9.752,8.81955556 11.024,7.744 12.508,7.744 C13.992,7.744 15.264,8.81955556 15.264,10.3253333 C15.264,11.8311111 13.78,12.9066667 12.296,12.9066667 Z M53,27.5342222 C53,20.2204444 45.792,14.4124444 37.1,14.4124444 C28.408,14.4124444 21.2,20.4355556 21.2,27.5342222 C21.2,34.6328889 28.408,40.656 37.1,40.656 C38.796,40.656 40.492,40.4408889 42.188,40.0106667 L42.4,40.0106667 L48.124,43.0222222 L46.64,38.2897778 L46.852,38.2897778 C50.456,35.7084444 53,31.8364444 53,27.5342222 Z M31.376,25.168 C30.104,25.168 29.044,24.3075556 29.044,23.0168889 C29.044,21.7262222 30.104,20.8657778 31.376,20.8657778 C32.648,20.8657778 33.708,21.7262222 33.708,23.0168889 C33.708,24.3075556 32.648,25.168 31.376,25.168 Z M42.612,25.168 C41.34,25.168 40.28,24.3075556 40.28,23.0168889 C40.28,21.7262222 41.34,20.8657778 42.612,20.8657778 C43.884,20.8657778 44.944,21.7262222 44.944,23.0168889 C44.944,24.3075556 43.884,25.168 42.612,25.168 Z" id="形状"></path>
                </g>
            </g>
        </g>
    </g>
</svg>