<?xml version="1.0" encoding="UTF-8"?>
<svg width="28px" height="18px" viewBox="0 0 28 18" version="1.1" xmlns="http://www.w3.org/2000/svg" xmlns:xlink="http://www.w3.org/1999/xlink">
    <!-- Generator: Sketch 52.4 (67378) - http://www.bohemiancoding.com/sketch -->
    <title>合并形状 copy</title>
    <desc>Created with Sketch.</desc>
    <defs>
        <linearGradient x1="100%" y1="50%" x2="-2.22044605e-14%" y2="50%" id="linearGradient-1">
            <stop stop-color="#FAD961" offset="0%"></stop>
            <stop stop-color="#F76B1C" offset="100%"></stop>
        </linearGradient>
    </defs>
    <g id="Page-1" stroke="none" stroke-width="1" fill="none" fill-rule="evenodd">
        <g id="iPhone-8-Copy-8" transform="translate(-603.000000, -543.000000)" fill="url(#linearGradient-1)" fill-rule="nonzero">
            <g id="分组-2" transform="translate(119.000000, 529.000000)">
                <path d="M510,18 C508.895431,18 508,17.1045695 508,16 C508,14.8954305 508.895431,14 510,14 C511.104569,14 512,14.8954305 512,16 C512,17.1045695 511.104569,18 510,18 Z M502,18 C500.895431,18 500,17.1045695 500,16 C500,14.8954305 500.895431,14 502,14 C503.104569,14 504,14.8954305 504,16 C504,17.1045695 503.104569,18 502,18 Z M494,18 C492.895431,18 492,17.1045695 492,16 C492,14.8954305 492.895431,14 494,14 C495.104569,14 496,14.8954305 496,16 C496,17.1045695 495.104569,18 494,18 Z M486,18 C484.895431,18 484,17.1045695 484,16 C484,14.8954305 484.895431,14 486,14 C487.104569,14 488,14.8954305 488,16 C488,17.1045695 487.104569,18 486,18 Z M510,25 C508.895431,25 508,24.1045695 508,23 C508,21.8954305 508.895431,21 510,21 C511.104569,21 512,21.8954305 512,23 C512,24.1045695 511.104569,25 510,25 Z M502,25 C500.895431,25 500,24.1045695 500,23 C500,21.8954305 500.895431,21 502,21 C503.104569,21 504,21.8954305 504,23 C504,24.1045695 503.104569,25 502,25 Z M494,25 C492.895431,25 492,24.1045695 492,23 C492,21.8954305 492.895431,21 494,21 C495.104569,21 496,21.8954305 496,23 C496,24.1045695 495.104569,25 494,25 Z M486,25 C484.895431,25 484,24.1045695 484,23 C484,21.8954305 484.895431,21 486,21 C487.104569,21 488,21.8954305 488,23 C488,24.1045695 487.104569,25 486,25 Z M510,32 C508.895431,32 508,31.1045695 508,30 C508,28.8954305 508.895431,28 510,28 C511.104569,28 512,28.8954305 512,30 C512,31.1045695 511.104569,32 510,32 Z M502,32 C500.895431,32 500,31.1045695 500,30 C500,28.8954305 500.895431,28 502,28 C503.104569,28 504,28.8954305 504,30 C504,31.1045695 503.104569,32 502,32 Z M494,32 C492.895431,32 492,31.1045695 492,30 C492,28.8954305 492.895431,28 494,28 C495.104569,28 496,28.8954305 496,30 C496,31.1045695 495.104569,32 494,32 Z M486,32 C484.895431,32 484,31.1045695 484,30 C484,28.8954305 484.895431,28 486,28 C487.104569,28 488,28.8954305 488,30 C488,31.1045695 487.104569,32 486,32 Z" id="合并形状-copy"></path>
            </g>
        </g>
    </g>
</svg>