<?xml version="1.0" encoding="UTF-8"?>
<svg width="28px" height="18px" viewBox="0 0 28 18" version="1.1" xmlns="http://www.w3.org/2000/svg" xmlns:xlink="http://www.w3.org/1999/xlink">
    <!-- Generator: Sketch 52.4 (67378) - http://www.bohemiancoding.com/sketch -->
    <title>合并形状</title>
    <desc>Created with Sketch.</desc>
    <defs>
        <linearGradient x1="-1.11022302e-14%" y1="50%" x2="100%" y2="50%" id="linearGradient-1">
            <stop stop-color="#FAD961" offset="0%"></stop>
            <stop stop-color="#F76B1C" offset="100%"></stop>
        </linearGradient>
    </defs>
    <g id="Page-1" stroke="none" stroke-width="1" fill="none" fill-rule="evenodd">
        <g id="iPhone-8-Copy-8" transform="translate(-119.000000, -543.000000)" fill="url(#linearGradient-1)" fill-rule="nonzero">
            <g id="分组-2" transform="translate(119.000000, 529.000000)">
                <path d="M26,18 C24.8954305,18 24,17.1045695 24,16 C24,14.8954305 24.8954305,14 26,14 C27.1045695,14 28,14.8954305 28,16 C28,17.1045695 27.1045695,18 26,18 Z M18,18 C16.8954305,18 16,17.1045695 16,16 C16,14.8954305 16.8954305,14 18,14 C19.1045695,14 20,14.8954305 20,16 C20,17.1045695 19.1045695,18 18,18 Z M10,18 C8.8954305,18 8,17.1045695 8,16 C8,14.8954305 8.8954305,14 10,14 C11.1045695,14 12,14.8954305 12,16 C12,17.1045695 11.1045695,18 10,18 Z M2,18 C0.8954305,18 0,17.1045695 0,16 C0,14.8954305 0.8954305,14 2,14 C3.1045695,14 4,14.8954305 4,16 C4,17.1045695 3.1045695,18 2,18 Z M26,25 C24.8954305,25 24,24.1045695 24,23 C24,21.8954305 24.8954305,21 26,21 C27.1045695,21 28,21.8954305 28,23 C28,24.1045695 27.1045695,25 26,25 Z M18,25 C16.8954305,25 16,24.1045695 16,23 C16,21.8954305 16.8954305,21 18,21 C19.1045695,21 20,21.8954305 20,23 C20,24.1045695 19.1045695,25 18,25 Z M10,25 C8.8954305,25 8,24.1045695 8,23 C8,21.8954305 8.8954305,21 10,21 C11.1045695,21 12,21.8954305 12,23 C12,24.1045695 11.1045695,25 10,25 Z M2,25 C0.8954305,25 0,24.1045695 0,23 C0,21.8954305 0.8954305,21 2,21 C3.1045695,21 4,21.8954305 4,23 C4,24.1045695 3.1045695,25 2,25 Z M26,32 C24.8954305,32 24,31.1045695 24,30 C24,28.8954305 24.8954305,28 26,28 C27.1045695,28 28,28.8954305 28,30 C28,31.1045695 27.1045695,32 26,32 Z M18,32 C16.8954305,32 16,31.1045695 16,30 C16,28.8954305 16.8954305,28 18,28 C19.1045695,28 20,28.8954305 20,30 C20,31.1045695 19.1045695,32 18,32 Z M10,32 C8.8954305,32 8,31.1045695 8,30 C8,28.8954305 8.8954305,28 10,28 C11.1045695,28 12,28.8954305 12,30 C12,31.1045695 11.1045695,32 10,32 Z M2,32 C0.8954305,32 0,31.1045695 0,30 C0,28.8954305 0.8954305,28 2,28 C3.1045695,28 4,28.8954305 4,30 C4,31.1045695 3.1045695,32 2,32 Z" id="合并形状"></path>
            </g>
        </g>
    </g>
</svg>